<svg width="180" height="49" viewBox="0 0 180 49" fill="none" xmlns="http://www.w3.org/2000/svg">
<g opacity="0.8">
<path d="M62.6973 31.0333H11.9344C9.64553 31.0333 7.84717 29.155 7.84717 26.95V8.00335C7.84717 5.71668 9.72728 3.92001 11.9344 3.92001H62.6973C64.9861 3.92001 66.7845 5.79835 66.7845 8.00335V26.95C66.7845 29.2367 64.9044 31.0333 62.6973 31.0333Z" stroke="#4044AC" stroke-miterlimit="10"/>
<path d="M118.365 27.7667C113.787 27.7667 110.109 31.4417 110.109 36.0967C110.109 40.67 113.787 44.4267 118.365 44.4267C120.654 44.4267 122.779 43.4467 124.332 41.895L118.529 36.015L118.365 27.7667Z" fill="#4044AC"/>
<path d="M118.365 27.7667C113.787 27.7667 110.109 31.4417 110.109 36.0967C110.109 40.67 113.787 44.4267 118.365 44.4267C120.654 44.4267 122.779 43.4467 124.332 41.895L118.529 36.015L118.365 27.7667Z" fill="#4044AC"/>
<path d="M125.722 41.3233C127.193 39.8533 128.093 37.8117 128.093 35.525C128.093 34.79 128.011 34.1367 127.847 33.4833L120.654 36.4233L125.722 41.3233Z" fill="#4044AC"/>
<path d="M127.112 31.6867C125.722 29.0733 122.943 27.2767 119.755 27.2767V34.9533L127.112 31.6867Z" fill="#4044AC"/>
<path d="M35.2318 39.1183H13.8149V43.5283H35.2318V39.1183Z" fill="#4044AC"/>
<path d="M14.8776 39.1183V39.69H14.3054V42.9567H14.8776V43.5283H13.8149V39.1183H14.8776Z" fill="#4044AC"/>
<path d="M15.4497 41.3233H17.0846V39.69H17.6568V41.3233H19.2917V41.895H17.6568V43.5283H17.0846V41.895H15.4497V41.3233Z" fill="#4044AC"/>
<path d="M22.5615 43.5283V41.895H19.7822V39.1183H20.3544V41.3233H22.5615V39.1183H23.1337V43.5283H22.5615Z" fill="#4044AC"/>
<path d="M23.624 43.5283V42.385H24.1962V42.9567H26.4033V41.895H23.624V39.1183H26.9755V39.69H24.1962V41.3233H26.9755V43.5283H23.624Z" fill="#4044AC"/>
<path d="M28.0385 42.9567H27.4663V43.5283H28.0385V42.9567Z" fill="#4044AC"/>
<path d="M28.6104 39.1183H29.673V43.5283H29.1826V39.69H28.6104V39.1183Z" fill="#4044AC"/>
<path d="M30.2456 40.18V39.1183H33.5154V41.895H30.8178V42.9567H33.5154V43.5283H30.2456V41.3233H33.0249V39.69H30.8178V40.18H30.2456Z" fill="#4044AC"/>
<path d="M34.0874 39.1183H35.1501V43.5283H34.0874V42.9567H34.6596V39.69H34.0874V39.1183Z" fill="#4044AC"/>
<path d="M35.2318 39.1183H13.8149V43.5283H35.2318V39.1183Z" fill="#4044AC"/>
<path d="M14.8776 39.1183V39.69H14.3054V42.9567H14.8776V43.5283H13.8149V39.1183H14.8776Z" fill="#4044AC"/>
<path d="M15.4497 41.3233H17.0846V39.69H17.6568V41.3233H19.2917V41.895H17.6568V43.5283H17.0846V41.895H15.4497V41.3233Z" fill="#4044AC"/>
<path d="M22.5615 43.5283V41.895H19.7822V39.1183H20.3544V41.3233H22.5615V39.1183H23.1337V43.5283H22.5615Z" fill="#4044AC"/>
<path d="M23.624 43.5283V42.385H24.1962V42.9567H26.4033V41.895H23.624V39.1183H26.9755V39.69H24.1962V41.3233H26.9755V43.5283H23.624Z" fill="#4044AC"/>
<path d="M28.0385 42.9567H27.4663V43.5283H28.0385V42.9567Z" fill="#4044AC"/>
<path d="M28.6104 39.1183H29.673V43.5283H29.1826V39.69H28.6104V39.1183Z" fill="#4044AC"/>
<path d="M30.2456 40.18V39.1183H33.5154V41.895H30.8178V42.9567H33.5154V43.5283H30.2456V41.3233H33.0249V39.69H30.8178V40.18H30.2456Z" fill="#4044AC"/>
<path d="M34.0874 39.1183H35.1501V43.5283H34.0874V42.9567H34.6596V39.69H34.0874V39.1183Z" fill="#4044AC"/>
<path d="M71.2808 29.0733H75.2045V34.2183H71.3625V29.0733H71.2808ZM71.9347 31.6867H74.4688V29.7267H71.9347V31.6867ZM71.9347 33.565H74.4688V32.2583H71.9347V33.565Z" fill="#4044AC"/>
<path d="M79.6188 29.0733V34.2183H75.7769V33.565H78.9649V32.2583H75.7769V29.0733H79.6188ZM76.4308 31.6867H78.9649V29.7267H76.4308V31.6867Z" fill="#4044AC"/>
<path d="M80.9264 33.565H80.2725V34.8717H80.9264V33.565Z" fill="#4044AC"/>
<path d="M81.5806 29.0733H85.4225V34.2183H81.5806V29.0733ZM82.2345 33.565H84.7686V29.7267H82.2345V33.565Z" fill="#4044AC"/>
<path d="M86.0762 29.0733H89.9181V34.2183H86.0762V29.0733ZM86.7301 33.565H89.2642V29.7267H86.7301V33.565Z" fill="#4044AC"/>
<path d="M90.5723 29.0733H94.4142V34.2183H90.5723V29.0733ZM91.1445 33.565H93.6785V29.7267H91.1445V33.565Z" fill="#4044AC"/>
<path d="M71.7713 37.5667V38.3833H70.8721V43.365H71.7713V44.1816H70.0547V37.5667H71.7713Z" fill="#4044AC"/>
<path d="M72.5889 40.915H75.0412V38.3833H75.8586V40.915H78.3109V41.7317H75.8586V44.1817H75.0412V41.7317H72.5889V40.915Z" fill="#4044AC"/>
<path d="M83.2156 44.1816V41.7316H79.1284V37.5667H79.9459V40.915H83.2156V37.5667H84.1148V44.1816H83.2156Z" fill="#4044AC"/>
<path d="M84.9321 44.1816V42.5483H85.7496V43.365H89.0193V41.7316H84.9321V37.5667H89.8368V38.3833H85.7496V40.915H89.8368V44.1816H84.9321Z" fill="#4044AC"/>
<path d="M91.4717 43.365H90.6543V44.1817H91.4717V43.365Z" fill="#4044AC"/>
<path d="M92.2891 37.5667H93.9239V44.1816H93.1065V38.3833H92.2891V37.5667Z" fill="#4044AC"/>
<path d="M94.7412 39.2816V37.5667H99.7276V41.7316H95.5586V43.365H99.7276V44.1816H94.7412V40.915H98.9101V38.3833H95.5586V39.2816H94.7412Z" fill="#4044AC"/>
<path d="M100.545 37.5667H102.18V44.1816H100.545V43.365H101.362V38.3833H100.545V37.5667Z" fill="#4044AC"/>
<path d="M71.7713 37.5667V38.3833H70.8721V43.365H71.7713V44.1816H70.0547V37.5667H71.7713Z" fill="#4044AC"/>
<path d="M72.5889 40.915H75.0412V38.3833H75.8586V40.915H78.3109V41.7317H75.8586V44.1817H75.0412V41.7317H72.5889V40.915Z" fill="#4044AC"/>
<path d="M83.2156 44.1816V41.7316H79.1284V37.5667H79.9459V40.915H83.2156V37.5667H84.1148V44.1816H83.2156Z" fill="#4044AC"/>
<path d="M84.9321 44.1816V42.5483H85.7496V43.365H89.0193V41.7316H84.9321V37.5667H89.8368V38.3833H85.7496V40.915H89.8368V44.1816H84.9321Z" fill="#4044AC"/>
<path d="M91.4717 43.365H90.6543V44.1817H91.4717V43.365Z" fill="#4044AC"/>
<path d="M92.2891 37.5667H93.9239V44.1816H93.1065V38.3833H92.2891V37.5667Z" fill="#4044AC"/>
<path d="M94.7412 39.2816V37.5667H99.7276V41.7316H95.5586V43.365H99.7276V44.1816H94.7412V40.915H98.9101V38.3833H95.5586V39.2816H94.7412Z" fill="#4044AC"/>
<path d="M100.545 37.5667H102.18V44.1816H100.545V43.365H101.362V38.3833H100.545V37.5667Z" fill="#4044AC"/>
<path d="M160.044 33.32V32.0133H160.616V32.7483H161.842V31.115H160.044V28.9917H162.415V29.645H160.616V30.5433H162.415V33.32H160.044Z" fill="#4044AC"/>
<path d="M163.723 33.32V32.7483H165.358V31.7683L165.112 31.4417H164.458V30.87H165.112L165.358 30.5433V29.645H163.723V28.9917H166.011V30.87L165.685 31.1967L166.011 31.4417V33.32H163.723Z" fill="#4044AC"/>
<path d="M168.137 33.32H167.564L169.036 29.5633H167.156V28.9917H169.608V29.5633L168.137 33.32Z" fill="#4044AC"/>
<path d="M171.488 32.585H170.752V33.32H171.488V32.585Z" fill="#4044AC"/>
<path d="M172.632 33.32V32.34L174.512 30.4617V29.5633H173.286V30.7067H172.632V28.9917H175.085V30.7067L173.286 32.5033V32.7483H175.085V33.32H172.632Z" fill="#4044AC"/>
<path d="M176.229 33.32V32.0133H176.801V32.7483H178.027V31.115H176.229V28.9917H178.681V29.645H176.801V30.5433H178.681V33.32H176.229Z" fill="#4044AC"/>
<path d="M160.044 37.73H162.251V41.65H160.044V37.73ZM161.679 38.3016H160.534V41.16H161.679V38.3016Z" fill="#4044AC"/>
<path d="M163.967 40.9966H163.313V41.65H163.967V40.9966Z" fill="#4044AC"/>
<path d="M165.848 41.65H165.357L166.665 38.3016H165.03V37.73H167.237V38.3016L165.848 41.65Z" fill="#4044AC"/>
<path d="M168.3 41.65V37.73H170.507V38.3016H168.872V39.1183H170.507V41.65H168.3ZM169.935 39.69H168.79V41.16H169.935V39.69Z" fill="#4044AC"/>
<path d="M160.044 12.4133H162.415V16.7417H160.044V12.4133ZM161.842 12.985H160.616V16.17H161.842V12.985Z" fill="#4044AC"/>
<path d="M164.376 16.0067H163.641V16.7417H164.376V16.0067Z" fill="#4044AC"/>
<path d="M165.521 16.7417V15.435H166.093V16.17H167.319V14.5367H165.521V12.4133H167.892V13.0667H166.093V13.965H167.892V16.7417H165.521Z" fill="#4044AC"/>
<path d="M169.199 16.7417V16.17H170.834V15.19L170.589 14.8633H169.935V14.2917H170.589L170.834 14.0467V13.0667H169.199V12.4133H171.488V14.2917L171.161 14.6183L171.488 14.8633V16.7417H169.199Z" fill="#4044AC"/>
<path d="M160.044 25.3167V24.1733H160.616V24.745H162.823V23.6833H160.044V20.9067H163.314V21.4783H160.616V23.1117H163.314V25.3167H160.044Z" fill="#4044AC"/>
<path d="M167.156 20.9067V21.4783H164.376V23.1117H167.156V25.3167H163.886V20.9067H167.156ZM164.458 24.745H166.665V23.6833H164.458V24.745Z" fill="#4044AC"/>
<path d="M168.3 24.745H167.728V25.3167H168.3V24.745Z" fill="#4044AC"/>
<path d="M172.142 20.9067V25.3167H168.872V24.745H171.651V23.6833H168.872V20.9067H172.142ZM169.363 23.1117H171.57V21.4783H169.363V23.1117Z" fill="#4044AC"/>
<path d="M172.632 20.9067H175.902V25.3167H172.632V20.9067ZM173.205 24.745H175.412V21.4783H173.205V24.745Z" fill="#4044AC"/>
<path d="M153.025 9.63667L151.471 7.02334L150 4.41H153.025H156.049L154.496 7.02334L153.025 9.63667Z" fill="#4044AC"/>
<path d="M62.3707 39.0367L63.8421 41.65L65.3952 44.345H62.3707H59.3462L60.8176 41.65L62.3707 39.0367Z" fill="#4044AC"/>
<path d="M160.779 7.02332H158V7.59498H160.779V7.02332Z" fill="#4044AC"/>
<path d="M164.049 9.22833V7.595H161.352V4.81833H161.842V7.02333H164.049V4.81833H164.621V9.22833H164.049Z" fill="#4044AC"/>
<path d="M165.193 9.22833V8.16666H165.684V8.65666H167.891V7.595H165.193V4.81833H168.463V5.39H165.684V7.02333H168.463V9.22833H165.193Z" fill="#4044AC"/>
<path d="M169.607 8.65668H169.035V9.22834H169.607V8.65668Z" fill="#4044AC"/>
<path d="M170.098 5.96166V4.81833H173.368V7.595H170.67V8.65666H173.368V9.22833H170.098V7.02333H172.877V5.39H170.67V5.96166H170.098Z" fill="#4044AC"/>
<path d="M177.21 4.81833V9.22833H173.94V8.65666H176.72V7.595H173.94V7.02333H176.72V5.39H173.94V4.81833H177.21Z" fill="#4044AC"/>
<path d="M13.2425 16.8233C12.6702 16.8233 12.0163 16.66 11.4441 16.3333C11.2806 16.2517 11.1989 16.0067 11.2806 15.8433C11.3623 15.68 11.6076 15.5983 11.7711 15.68C13.079 16.415 14.3869 16.17 15.7765 14.945C15.8583 14.8633 16.0217 14.7817 16.1035 14.6183C17.4114 13.475 18.1471 12.74 22.0708 13.3933C25.2588 13.8833 27.2207 12.5767 29.7547 10.9433C30.3269 10.6167 30.8174 10.2083 31.4713 9.80001C35.0681 7.59501 41.7711 8.16667 44.4686 12.005C45.94 14.1283 47.0844 15.2717 47.8201 15.2717C48.0653 15.2717 48.3106 15.19 48.4741 14.8633C49.3732 13.72 50.4359 13.5567 51.4986 14.2917C52.2343 14.7817 54.1961 15.68 55.0953 14.3733C56.2397 12.6583 57.7111 12.0867 58.9373 12.8217C59.8365 13.3933 61.1444 13.475 61.7166 12.5767C61.7983 12.4133 62.0435 12.4133 62.207 12.495C62.3705 12.5767 62.3705 12.8217 62.2888 12.985C61.4713 14.21 59.7547 14.1283 58.6103 13.3933C57.5476 12.74 56.3215 13.72 55.6675 14.7817C54.6049 16.3333 52.3978 15.68 51.1716 14.8633C50.3542 14.2917 49.7002 14.455 49.0463 15.2717C48.7193 15.68 48.3106 15.925 47.8201 15.925C46.8392 15.8433 45.6948 14.7817 43.9781 12.3317C41.9346 9.31001 35.9673 7.84001 31.8801 10.29C31.3079 10.6983 30.7356 11.025 30.1634 11.3517C27.6294 12.985 25.504 14.455 21.989 13.8833C18.3923 13.3117 17.8201 13.8833 16.594 14.945C16.5122 15.0267 16.3487 15.1083 16.267 15.2717C15.2043 16.415 14.2234 16.8233 13.2425 16.8233Z" fill="#4044AC"/>
<path d="M13.2425 16.8233C12.6702 16.8233 12.0163 16.66 11.4441 16.3333C11.2806 16.2517 11.1989 16.0067 11.2806 15.8433C11.3623 15.68 11.6076 15.5983 11.7711 15.68C13.079 16.415 14.3869 16.17 15.7765 14.945C15.8583 14.8633 16.0217 14.7817 16.1035 14.6183C17.4114 13.475 18.1471 12.74 22.0708 13.3933C25.2588 13.8833 27.2207 12.5767 29.7547 10.9433C30.3269 10.6167 30.8174 10.2083 31.4713 9.80001C35.0681 7.59501 41.7711 8.16667 44.4686 12.005C45.94 14.1283 47.0844 15.2717 47.8201 15.2717C48.0653 15.2717 48.3106 15.19 48.4741 14.8633C49.3732 13.72 50.4359 13.5567 51.4986 14.2917C52.2343 14.7817 54.1961 15.68 55.0953 14.3733C56.2397 12.6583 57.7111 12.0867 58.9373 12.8217C59.8365 13.3933 61.1444 13.475 61.7166 12.5767C61.7983 12.4133 62.0435 12.4133 62.207 12.495C62.3705 12.5767 62.3705 12.8217 62.2888 12.985C61.4713 14.21 59.7547 14.1283 58.6103 13.3933C57.5476 12.74 56.3215 13.72 55.6675 14.7817C54.6049 16.3333 52.3978 15.68 51.1716 14.8633C50.3542 14.2917 49.7002 14.455 49.0463 15.2717C48.7193 15.68 48.3106 15.925 47.8201 15.925C46.8392 15.8433 45.6948 14.7817 43.9781 12.3317C41.9346 9.31001 35.9673 7.84001 31.8801 10.29C31.3079 10.6983 30.7356 11.025 30.1634 11.3517C27.6294 12.985 25.504 14.455 21.989 13.8833C18.3923 13.3117 17.8201 13.8833 16.594 14.945C16.5122 15.0267 16.3487 15.1083 16.267 15.2717C15.2043 16.415 14.2234 16.8233 13.2425 16.8233Z" fill="#4044AC"/>
<path d="M16.4308 27.5217L14.8776 24.9083L13.4062 22.295H16.4308H19.4553L17.9839 24.9083L16.4308 27.5217Z" fill="#4044AC"/>
<path d="M22.8882 24.9083H20.1089V25.48H22.8882V24.9083Z" fill="#4044AC"/>
<path d="M26.158 27.1133V25.48H23.4604V22.7033H23.9509V24.9083H26.158V22.7033H26.7302V27.1133H26.158Z" fill="#4044AC"/>
<path d="M27.3022 27.1133V25.97H27.7927V26.5417H29.9998V25.48H27.3022V22.7033H30.572V23.275H27.7927V24.9083H30.572V27.1133H27.3022Z" fill="#4044AC"/>
<path d="M31.7167 26.5417H31.1445V27.1133H31.7167V26.5417Z" fill="#4044AC"/>
<path d="M32.207 23.765V22.7033H35.4768V25.48H32.7792V26.5417H35.4768V27.1133H32.207V24.9083H34.9863V23.275H32.7792V23.765H32.207Z" fill="#4044AC"/>
<path d="M39.3186 22.7033V27.1133H36.0488V26.5417H38.8281V25.48H36.0488V24.9083H38.8281V23.275H36.0488V22.7033H39.3186Z" fill="#4044AC"/>
<path d="M143.656 47.04C143.493 47.04 143.411 46.9583 143.411 46.795V3.43C143.411 3.26666 143.493 3.185 143.656 3.185C143.82 3.185 143.902 3.26666 143.902 3.43V46.795C143.902 46.9583 143.738 47.04 143.656 47.04Z" fill="#4044AC"/>
</g>
<path opacity="0.8" d="M100.545 12.8487C102.18 13.1834 103.488 14.522 103.815 16.1954H107.575C107.248 12.4304 104.305 9.41834 100.627 9V12.8487H100.545Z" fill="#4044AC"/>
<path opacity="0.8" d="M103.733 17.6177C103.406 19.2911 102.18 20.6297 100.463 20.9644V24.813C104.141 24.4784 107.084 21.4664 107.411 17.6177H103.733Z" fill="#4044AC"/>
<path opacity="0.8" d="M99.155 20.9644C97.5201 20.6297 96.2122 19.2911 95.8852 17.6177H92.125C92.452 21.3827 95.3948 24.4784 99.0732 24.813V20.9644H99.155Z" fill="#4044AC"/>
<path opacity="0.8" d="M95.8855 16.1954C96.2125 14.522 97.4386 13.1834 99.1553 12.8487V9.08368C95.4768 9.41835 92.534 12.4304 92.207 16.2791H95.8855V16.1954Z" fill="#4044AC"/>
<path opacity="0.8" d="M119.591 13.1834V9.4184C115.995 9.75306 113.134 12.6814 112.807 16.3627H116.403H119.591V13.1834Z" fill="#4044AC"/>
<path opacity="0.8" d="M119.591 21.0481C117.956 20.7971 116.73 19.4584 116.403 17.7851H112.807C113.134 21.4664 115.995 24.3948 119.591 24.7294V21.0481Z" fill="#4044AC"/>
<path opacity="0.8" d="M120.981 13.1834C122.616 13.4344 123.842 14.7731 124.169 16.4464H127.766C127.439 12.7651 124.578 9.83674 120.981 9.50208V13.1834Z" fill="#4044AC"/>
<path opacity="0.8" d="M124.169 17.7851C123.924 19.4584 122.616 20.7134 120.981 21.0481V24.813C124.578 24.4784 127.439 21.5501 127.766 17.8688H124.169V17.7851Z" fill="#4044AC"/>
<path opacity="0.8" d="M78.7193 13.1834V9.4184C75.1226 9.75306 72.2615 12.6814 71.9346 16.4464H75.5313H78.7193V13.1834Z" fill="#4044AC"/>
<path opacity="0.8" d="M78.7193 21.0481C77.0844 20.7971 75.8583 19.4584 75.5313 17.7851H71.9346C72.2615 21.4664 75.1226 24.3948 78.7193 24.7294V21.0481Z" fill="#4044AC"/>
<path opacity="0.8" d="M80.0273 13.1834C81.6622 13.4344 82.8884 14.7731 83.2154 16.4464H86.8121C86.4851 12.7651 83.6241 9.83674 80.0273 9.50208V13.1834Z" fill="#4044AC"/>
<path opacity="0.8" d="M83.2154 17.7851C82.9701 19.4584 81.6622 20.7134 80.0273 21.0481V24.813C83.6241 24.4784 86.4851 21.5501 86.8121 17.8688H83.2154V17.7851Z" fill="#4044AC"/>
</svg>
