<svg width="58" height="70" viewBox="0 0 58 70" fill="none" xmlns="http://www.w3.org/2000/svg">
<g clip-path="url(#clip0)">
<circle cx="34" cy="44" r="18" fill="#4044AC"/>
<path d="M41.8999 13.4C39.9999 14.5 39.3999 17 40.5999 18.8C40.9999 19.5 41.6999 20 42.3999 20.4L37.9999 34.1L38.5999 34.3C38.9999 34.5 39.3999 34.7 39.7999 34.9C41.4999 35.8 42.8999 37.2 43.8999 38.8C46.9999 44 45.3999 50.8 40.1999 53.9C36.2999 56.3 31.4999 55.9 28.0999 53.4L22.8999 59.4C28.8999 64.1 37.3999 64.9 44.2999 60.7C53.1999 55.3 55.9999 43.6 50.6999 34.7C48.9999 31.9 46.5999 29.5 43.6999 27.9C42.9999 27.5 42.3999 27.2 41.6999 27L43.6999 20.7C44.4999 20.8 45.2999 20.6 46.0999 20.2C47.9999 19.1 48.5999 16.6 47.3999 14.8C46.1999 12.9 43.7999 12.3 41.8999 13.4ZM45.2999 19.1C44.0999 19.9 42.3999 19.5 41.6999 18.2C40.9999 17 41.2999 15.3 42.5999 14.6C43.7999 13.8 45.4999 14.2 46.1999 15.5C46.8999 16.8 46.5999 18.3 45.2999 19.1Z" fill="#02BA74"/>
<path d="M6.00002 41.1C7.00002 40.5 7.60002 39.6 7.80002 38.6L24.2 41.3L24.3 40.7C25.1 38.5 26.7 36.5 28.9 35.2C30.6 34.2 32.5 33.6 34.4 33.6C34.5 33.6 34.6 33.6 34.7 33.6L36.6 25.8C35.8 25.7 35.1 25.7 34.3 25.7C30.9 25.7 27.6 26.7 24.8 28.4C20.8 30.8 18 34.6 16.7 38.8L7.90002 37.3C7.80002 36.8 7.70002 36.2 7.40002 35.7C6.30002 33.8 3.80002 33.2 2.00002 34.4C0.100016 35.5 -0.499984 38 0.700016 39.8C1.90002 41.6 4.10002 42.2 6.00002 41.1ZM2.60002 35.4C3.80002 34.6 5.50002 35 6.20002 36.3C6.90002 37.5 6.60002 39.2 5.30002 39.9C4.10002 40.7 2.40002 40.3 1.70002 39C0.900016 37.8 1.30002 36.2 2.60002 35.4Z" fill="#02BA74"/>
<path d="M25.9001 51L25.4001 50.6C25.3001 50.5 25.2001 50.4 25.2001 50.3C24.1001 48.5 23.6001 46.5 23.6001 44.6L15.8001 43.2C15.5001 47 16.3001 50.9 18.4001 54.4C18.8001 55 19.2001 55.6 19.6001 56.1L14.4001 62C13.2001 61.4 11.8001 61.4 10.6001 62.2C8.70011 63.3 8.10011 65.8 9.30011 67.6C10.4001 69.5 12.9001 70.1 14.7001 68.9C16.6001 67.8 17.2001 65.3 16.0001 63.5C15.8001 63.2 15.6001 63 15.4001 62.8L25.9001 51ZM14.0001 67.8C12.8001 68.6 11.1001 68.2 10.4001 66.9C9.70011 65.7 10.0001 64 11.3001 63.3C12.5001 62.5 14.2001 62.9 14.9001 64.2C15.7001 65.4 15.3001 67.1 14.0001 67.8Z" fill="#02BA74"/>
<path d="M32.8999 2.2V0H39.3999V8.7H38.2999V1.1H33.9999V2.2H32.8999Z" fill="#02BA74"/>
<path d="M40.5 8.7V6.5H41.6V7.6H45.9V5.4H40.5V0H47V1.1H41.6V4.4H47V8.7H40.5Z" fill="#02BA74"/>
<path d="M50.2999 7.6V5.4H52.4999V2.2H54.6999V0H57.9999V1.1H55.7999V3.3H53.5999V6.6H51.3999V8.8H48.0999V7.6H50.2999ZM48.0999 0H51.3999V3.3H48.0999V0ZM49.1999 2.2H50.2999V1.1H49.1999V2.2ZM54.5999 5.4H57.8999V8.7H54.5999V5.4ZM55.6999 7.6H56.7999V6.5H55.6999V7.6Z" fill="#02BA74"/>
</g>
<defs>
<clipPath id="clip0">
<rect width="57.9" height="69.5" fill="white"/>
</clipPath>
</defs>
</svg>
