<svg width="107" height="78" viewBox="0 0 107 78" fill="none" xmlns="http://www.w3.org/2000/svg">
<rect x="42.3691" y="6.10352e-05" width="12.9262" height="77.557" fill="#F9F8F8"/>
<rect x="68.2217" y="42.3692" width="12.9262" height="35.1879" fill="#4044AC"/>
<rect x="94.0737" y="59.6041" width="12.9262" height="17.953" fill="#FF5629"/>
<g clip-path="url(#clip0)">
<path d="M10.2549 50.7703H12.9013V54.3299H10.2549V50.7703ZM10.718 53.9344H12.5044V51.2976H10.718V53.9344Z" fill="#F9F8F8"/>
<path d="M13.8276 53.9344H13.3645V54.3958H13.8276V53.9344Z" fill="#F9F8F8"/>
<path d="M14.2246 51.6932V50.7703H16.9372V54.3299H16.4741V51.2317H14.6877V51.6932H14.2246Z" fill="#F9F8F8"/>
<path d="M17.334 50.7703H19.9804V54.3299H17.334V50.7703ZM17.7971 52.5501H19.5835V51.2317H17.7971V52.5501ZM17.7971 53.9344H19.5835V53.0774H17.7971V53.9344Z" fill="#F9F8F8"/>
<path d="M6.48363 56.2415V56.7029H6.0205V59.4056H6.48363V59.8011H5.62354V56.2415H6.48363Z" fill="#F9F8F8"/>
<path d="M6.94678 58.0213H8.26999V56.7029H8.73312V58.0213H10.0563V58.4827H8.73312V59.8011H8.26999V58.4827H6.94678V58.0213Z" fill="#F9F8F8"/>
<path d="M10.4534 59.8011V58.9441H10.9165V59.4056H12.7028V58.4827H10.4534V56.2415H13.166V56.7029H10.9165V58.0213H13.166V59.8011H10.4534Z" fill="#F9F8F8"/>
<path d="M15.8125 59.8011V58.4827H13.563V56.2415H14.0261V58.0213H15.8125V56.2415H16.2756V59.8011H15.8125Z" fill="#F9F8F8"/>
<path d="M17.1355 59.4056H16.6724V59.867H17.1355V59.4056Z" fill="#F9F8F8"/>
<path d="M17.5986 57.1643V56.2415H20.2451V59.8011H19.7819V56.7029H18.0618V57.1643H17.5986Z" fill="#F9F8F8"/>
<path d="M20.7083 56.2415H23.3547V59.8011H20.7083V56.2415ZM21.1714 58.0213H22.9577V56.7029H21.1714V58.0213ZM21.1714 59.4056H22.9577V58.5486H21.1714V59.4056Z" fill="#F9F8F8"/>
<path d="M23.8179 56.2415H24.678V59.8011H23.8179V59.4056H24.281V56.7029H23.8179V56.2415Z" fill="#F9F8F8"/>
<path d="M10.2549 50.7703H12.9013V54.3299H10.2549V50.7703ZM10.718 53.9344H12.5044V51.2976H10.718V53.9344Z" fill="#F9F8F8"/>
<path d="M13.8276 53.9344H13.3645V54.3958H13.8276V53.9344Z" fill="#F9F8F8"/>
<path d="M14.2246 51.6932V50.7703H16.9372V54.3299H16.4741V51.2317H14.6877V51.6932H14.2246Z" fill="#F9F8F8"/>
<path d="M17.334 50.7703H19.9804V54.3299H17.334V50.7703ZM17.7971 52.5501H19.5835V51.2317H17.7971V52.5501ZM17.7971 53.9344H19.5835V53.0774H17.7971V53.9344Z" fill="#F9F8F8"/>
<path d="M6.48363 56.2415V56.7029H6.0205V59.4056H6.48363V59.8011H5.62354V56.2415H6.48363Z" fill="#F9F8F8"/>
<path d="M6.94678 58.0213H8.26999V56.7029H8.73312V58.0213H10.0563V58.4827H8.73312V59.8011H8.26999V58.4827H6.94678V58.0213Z" fill="#F9F8F8"/>
<path d="M10.4534 59.8011V58.9441H10.9165V59.4056H12.7028V58.4827H10.4534V56.2415H13.166V56.7029H10.9165V58.0213H13.166V59.8011H10.4534Z" fill="#F9F8F8"/>
<path d="M15.8125 59.8011V58.4827H13.563V56.2415H14.0261V58.0213H15.8125V56.2415H16.2756V59.8011H15.8125Z" fill="#F9F8F8"/>
<path d="M17.1355 59.4056H16.6724V59.867H17.1355V59.4056Z" fill="#F9F8F8"/>
<path d="M17.5986 57.1643V56.2415H20.2451V59.8011H19.7819V56.7029H18.0618V57.1643H17.5986Z" fill="#F9F8F8"/>
<path d="M20.7083 56.2415H23.3547V59.8011H20.7083V56.2415ZM21.1714 58.0213H22.9577V56.7029H21.1714V58.0213ZM21.1714 59.4056H22.9577V58.5486H21.1714V59.4056Z" fill="#F9F8F8"/>
<path d="M23.8179 56.2415H24.678V59.8011H23.8179V59.4056H24.281V56.7029H23.8179V56.2415Z" fill="#F9F8F8"/>
<path d="M2.05099 55.8459L3.0434 57.5598L4.03581 59.3396H2.05099H0L0.992413 57.5598L2.05099 55.8459Z" fill="#F9F8F8"/>
<path d="M11.7104 12.6036H13.8276V16.4269H11.7104V12.6036ZM13.2983 13.065H12.2397V15.8336H13.2983V13.065Z" fill="#F9F8F8"/>
<path d="M15.5478 15.7677H14.8862V16.4269H15.5478V15.7677Z" fill="#F9F8F8"/>
<path d="M16.5403 16.3609V15.8336H18.1281V15.0426H16.5403V12.6036H18.6574V16.4268H16.5403V16.3609ZM18.1281 13.1309H17.0696V14.5152H18.1281V13.1309Z" fill="#F9F8F8"/>
<path d="M19.7822 16.3609V15.8336H21.2378V14.9766L21.0393 14.713H20.3777V14.1856H21.0393L21.2378 13.9879V13.1309H19.7822V12.6036H21.7671V14.1856L21.5024 14.4493L21.7671 14.713V16.3609H19.7822Z" fill="#F9F8F8"/>
<path d="M22.8254 16.3609V12.6036H24.9426V13.1309H23.3547V13.9219H24.9426V16.3609H22.8254ZM24.4795 14.4493H23.4209V15.8995H24.4795V14.4493Z" fill="#F9F8F8"/>
<path d="M27.9199 15.8336V16.3609H27.3906V15.8336H26.0012V12.6036H26.5305V15.3062H27.3906V13.9219H27.9199V15.3062H28.4492V15.8336H27.9199Z" fill="#F9F8F8"/>
<path d="M29.177 12.6036H31.2942V16.4268H29.177V12.6036ZM30.7649 13.065H29.7063V15.8336H30.7649V13.065Z" fill="#F9F8F8"/>
<path d="M32.3525 16.3609V15.504L33.9404 13.856V13.065H32.8157V14.1197H32.3525V12.6036H34.4697V14.0538L32.8157 15.6358V15.8995H34.4697V16.3609H32.3525Z" fill="#F9F8F8"/>
<path d="M8.73336 14.1856V12.6036H8.20407V14.1856H6.61621V14.713H8.20407V16.3609H8.73336V14.713H10.3212V14.1856H8.73336Z" fill="#F9F8F8"/>
<path d="M11.7104 12.6036H13.8276V16.4269H11.7104V12.6036ZM13.2983 13.065H12.2397V15.8336H13.2983V13.065Z" fill="#F9F8F8"/>
<path d="M15.5478 15.7677H14.8862V16.4269H15.5478V15.7677Z" fill="#F9F8F8"/>
<path d="M16.5403 16.3609V15.8336H18.1281V15.0426H16.5403V12.6036H18.6574V16.4268H16.5403V16.3609ZM18.1281 13.1309H17.0696V14.5152H18.1281V13.1309Z" fill="#F9F8F8"/>
<path d="M19.7822 16.3609V15.8336H21.2378V14.9766L21.0393 14.713H20.3777V14.1856H21.0393L21.2378 13.9879V13.1309H19.7822V12.6036H21.7671V14.1856L21.5024 14.4493L21.7671 14.713V16.3609H19.7822Z" fill="#F9F8F8"/>
<path d="M22.8254 16.3609V12.6036H24.9426V13.1309H23.3547V13.9219H24.9426V16.3609H22.8254ZM24.4795 14.4493H23.4209V15.8995H24.4795V14.4493Z" fill="#F9F8F8"/>
<path d="M27.9199 15.8336V16.3609H27.3906V15.8336H26.0012V12.6036H26.5305V15.3062H27.3906V13.9219H27.9199V15.3062H28.4492V15.8336H27.9199Z" fill="#F9F8F8"/>
<path d="M29.177 12.6036H31.2942V16.4268H29.177V12.6036ZM30.7649 13.065H29.7063V15.8336H30.7649V13.065Z" fill="#F9F8F8"/>
<path d="M32.3525 16.3609V15.504L33.9404 13.856V13.065H32.8157V14.1197H32.3525V12.6036H34.4697V14.0538L32.8157 15.6358V15.8995H34.4697V16.3609H32.3525Z" fill="#F9F8F8"/>
<path d="M8.73336 14.1856V12.6036H8.20407V14.1856H6.61621V14.713H8.20407V16.3609H8.73336V14.713H10.3212V14.1856H8.73336Z" fill="#F9F8F8"/>
<path d="M2.05099 42.135L3.0434 43.9148L4.03581 45.6286H2.05099H0L0.992413 43.9148L2.05099 42.135Z" fill="#F9F8F8"/>
<path d="M4.49902 40.2233V39.3005H4.96215V39.7619H6.74849V38.839H4.49902V36.6637H7.14546V37.0592H4.96215V38.4435H7.14546V40.2233H4.49902Z" fill="#F9F8F8"/>
<path d="M10.2548 36.6637V40.2233H7.6084V39.7619H9.85787V38.839H7.6084V38.4435H9.85787V37.0592H7.6084V36.6637H10.2548Z" fill="#F9F8F8"/>
<path d="M11.1814 39.7619H10.7183V40.6188H11.1814V39.7619Z" fill="#F9F8F8"/>
<path d="M14.291 36.6637V40.2233H11.6445V39.7619H13.894V38.9049H11.6445V36.6637H14.291ZM12.0415 38.4435H13.8278V37.1252H12.0415V38.4435Z" fill="#F9F8F8"/>
<path d="M14.6877 37.5207V36.6637H17.4003V40.2233H16.9372V37.0592H15.1509V37.5207H14.6877Z" fill="#F9F8F8"/>
<path d="M17.7974 36.6637H18.7236V40.2233H18.2605V37.0592H17.7974V36.6637Z" fill="#F9F8F8"/>
<path d="M19.6496 39.7619H19.1865V40.2233H19.6496V39.7619Z" fill="#F9F8F8"/>
<path d="M22.6931 36.6637V37.1252H20.5098V38.4435H22.7592V40.2233H20.1128V36.6637H22.6931ZM20.5098 39.7619H22.2961V38.9049H20.5098V39.7619Z" fill="#F9F8F8"/>
<path d="M25.8027 36.6637V40.2233H23.1562V39.7619H25.4057V38.839H23.1562V38.4435H25.4057V37.0592H23.1562V36.6637H25.8027Z" fill="#F9F8F8"/>
<path d="M4.49902 40.2233V39.3005H4.96215V39.7619H6.74849V38.839H4.49902V36.6637H7.14546V37.0592H4.96215V38.4435H7.14546V40.2233H4.49902Z" fill="#F9F8F8"/>
<path d="M10.2548 36.6637V40.2233H7.6084V39.7619H9.85787V38.839H7.6084V38.4435H9.85787V37.0592H7.6084V36.6637H10.2548Z" fill="#F9F8F8"/>
<path d="M11.1814 39.7619H10.7183V40.6188H11.1814V39.7619Z" fill="#F9F8F8"/>
<path d="M14.291 36.6637V40.2233H11.6445V39.7619H13.894V38.9049H11.6445V36.6637H14.291ZM12.0415 38.4435H13.8278V37.1252H12.0415V38.4435Z" fill="#F9F8F8"/>
<path d="M14.6877 37.5207V36.6637H17.4003V40.2233H16.9372V37.0592H15.1509V37.5207H14.6877Z" fill="#F9F8F8"/>
<path d="M17.7974 36.6637H18.7236V40.2233H18.2605V37.0592H17.7974V36.6637Z" fill="#F9F8F8"/>
<path d="M19.6496 39.7619H19.1865V40.2233H19.6496V39.7619Z" fill="#F9F8F8"/>
<path d="M22.6931 36.6637V37.1252H20.5098V38.4435H22.7592V40.2233H20.1128V36.6637H22.6931ZM20.5098 39.7619H22.2961V38.9049H20.5098V39.7619Z" fill="#F9F8F8"/>
<path d="M25.8027 36.6637V40.2233H23.1562V39.7619H25.4057V38.839H23.1562V38.4435H25.4057V37.0592H23.1562V36.6637H25.8027Z" fill="#F9F8F8"/>
<path d="M6.94701 42.0691V42.5305H6.48388V45.2331H6.94701V45.6286H6.08691V42.0691H6.94701Z" fill="#F9F8F8"/>
<path d="M9.65938 43.8488H7.40991V44.3103H9.65938V43.8488Z" fill="#F9F8F8"/>
<path d="M8.73339 42.9919H8.27026V45.2331H8.73339V42.9919Z" fill="#F9F8F8"/>
<path d="M12.7028 42.0691V45.6286H10.0564V45.2331H12.3059V44.3103H10.0564V43.8489H12.3059V42.5305H10.0564V42.0691H12.7028Z" fill="#F9F8F8"/>
<path d="M13.166 42.9919V42.0691H15.8124V44.3103H13.6291V45.2331H15.8124V45.6286H13.166V43.8489H15.4155V42.5305H13.6291V42.9919H13.166Z" fill="#F9F8F8"/>
<path d="M16.7388 45.2331H16.2756V45.6945H16.7388V45.2331Z" fill="#F9F8F8"/>
<path d="M19.8481 42.0691V42.5305H17.5986V43.8489H19.8481V45.6286H17.2017V42.0691H19.8481ZM17.5986 45.2331H19.385V44.3762H17.5986V45.2331Z" fill="#F9F8F8"/>
<path d="M20.2451 42.9919V42.0691H22.9577V45.6286H22.4946V42.5305H20.7082V42.9919H20.2451Z" fill="#F9F8F8"/>
<path d="M23.3547 42.0691H24.281V45.6286H23.3547V45.2331H23.8179V42.5305H23.3547V42.0691Z" fill="#F9F8F8"/>
<path d="M14.2907 27.4352V27.9626H13.7614V27.4352H12.3059V24.1393H12.8352V26.9079H13.7614V25.4577H14.2907V26.9079H14.82V27.4352H14.2907Z" fill="#F9F8F8"/>
<path d="M15.5479 24.1393H17.665V27.9626H15.5479V24.1393ZM17.1357 24.6667H16.0771V27.5011H17.1357V24.6667Z" fill="#F9F8F8"/>
<path d="M19.3852 27.3693H18.7236V28.0285H19.3852V27.3693Z" fill="#F9F8F8"/>
<path d="M20.4436 27.9626V24.1393H22.5608V24.6667H20.9729V25.4577H22.5608V27.9626H20.4436ZM22.0315 26.0509H20.9729V27.5011H22.0315V26.0509Z" fill="#F9F8F8"/>
<path d="M23.6194 27.9626V24.1393H25.7365V24.6667H24.1487V25.4577H25.7365V27.9626H23.6194ZM25.2072 26.0509H24.1487V27.5011H25.2072V26.0509Z" fill="#F9F8F8"/>
<path d="M8.86544 25.7873V24.1393H8.33615V25.7873H6.68213V26.3146H8.33615V27.9626H8.86544V26.3146H10.5195V25.7873H8.86544Z" fill="#F9F8F8"/>
<path d="M2.44795 24.1393L3.70501 26.2487L4.8959 28.424H2.44795H0L1.25706 26.2487L2.44795 24.1393Z" fill="#F9F8F8"/>
<path d="M3.37427 70.0184C3.37427 69.7547 3.57275 69.5569 3.83739 69.5569C4.10204 69.5569 4.30052 69.7547 4.30052 70.0184C4.30052 70.282 4.10204 70.4798 3.83739 70.4798C3.63891 70.4798 3.37427 70.282 3.37427 70.0184Z" fill="#F9F8F8"/>
<path d="M2.05103 70.0184C2.05103 69.7547 2.24951 69.5569 2.51415 69.5569C2.77879 69.5569 2.97728 69.7547 2.97728 70.0184C2.97728 70.282 2.77879 70.4798 2.51415 70.4798C2.24951 70.4798 2.05103 70.282 2.05103 70.0184Z" fill="#F9F8F8"/>
<path d="M0.661621 70.0184C0.661621 69.7547 0.860104 69.5569 1.12475 69.5569C1.38939 69.5569 1.58787 69.7547 1.58787 70.0184C1.58787 70.282 1.38939 70.4798 1.12475 70.4798C0.860104 70.4798 0.661621 70.282 0.661621 70.0184Z" fill="#F9F8F8"/>
<path d="M2.71265 71.2708C2.71265 71.0071 2.91113 70.8094 3.17577 70.8094C3.44042 70.8094 3.6389 71.0071 3.6389 71.2708C3.6389 71.5345 3.44042 71.7322 3.17577 71.7322C2.91113 71.7322 2.71265 71.5345 2.71265 71.2708Z" fill="#F9F8F8"/>
<path d="M1.3894 71.2708C1.3894 71.0071 1.58789 70.8094 1.85253 70.8094C2.11717 70.8094 2.31566 71.0071 2.31566 71.2708C2.31566 71.5345 2.11717 71.7322 1.85253 71.7322C1.58789 71.7322 1.3894 71.5345 1.3894 71.2708Z" fill="#F9F8F8"/>
<path d="M2.97728 71.9959H2.05103V72.9187H2.97728V71.9959Z" fill="#F9F8F8"/>
<path d="M2.05103 72.4573C2.05103 72.1936 2.24951 71.9959 2.51415 71.9959C2.77879 71.9959 2.97728 72.1936 2.97728 72.4573C2.97728 72.721 2.77879 72.9187 2.51415 72.9187C2.24951 72.9187 2.05103 72.721 2.05103 72.4573Z" fill="#F9F8F8"/>
<path d="M4.10205 68.8318C4.10205 68.5681 4.30053 68.3704 4.56518 68.3704C4.82982 68.3704 5.0283 68.5681 5.0283 68.8318C5.0283 69.0955 4.82982 69.2932 4.56518 69.2932C4.30053 69.2932 4.10205 69.0955 4.10205 68.8318Z" fill="#F9F8F8"/>
<path d="M2.71265 68.8318C2.71265 68.5681 2.91113 68.3704 3.17577 68.3704C3.44042 68.3704 3.6389 68.5681 3.6389 68.8318C3.6389 69.0955 3.44042 69.2932 3.17577 69.2932C2.91113 69.2932 2.71265 69.0955 2.71265 68.8318Z" fill="#F9F8F8"/>
<path d="M1.3894 68.8318C1.3894 68.5681 1.58789 68.3704 1.85253 68.3704C2.11717 68.3704 2.31566 68.5681 2.31566 68.8318C2.31566 69.0955 2.11717 69.2932 1.85253 69.2932C1.58789 69.2932 1.3894 69.0955 1.3894 68.8318Z" fill="#F9F8F8"/>
<path d="M0 68.8318C0 68.5681 0.198483 68.3704 0.463126 68.3704C0.727769 68.3704 0.926252 68.5681 0.926252 68.8318C0.926252 69.0955 0.727769 69.2932 0.463126 69.2932C0.198483 69.2932 0 69.0955 0 68.8318Z" fill="#F9F8F8"/>
<path d="M1.58787 15.1085C1.58787 15.3722 1.38939 15.57 1.12475 15.57C0.860104 15.57 0.661621 15.3063 0.661621 15.1085C0.661621 14.8448 0.860104 14.5812 1.12475 14.5812C1.38939 14.5812 1.58787 14.8448 1.58787 15.1085Z" fill="#F9F8F8"/>
<path d="M2.97728 15.1085C2.97728 15.3722 2.77879 15.5699 2.51415 15.5699C2.24951 15.5699 2.05103 15.3722 2.05103 15.1085C2.05103 14.8448 2.24951 14.6471 2.51415 14.6471C2.77879 14.5812 2.97728 14.8448 2.97728 15.1085Z" fill="#F9F8F8"/>
<path d="M4.36668 15.1085C4.36668 15.3722 4.1682 15.5699 3.90356 15.5699C3.63891 15.5699 3.44043 15.3722 3.44043 15.1085C3.44043 14.8448 3.63891 14.6471 3.90356 14.6471C4.10204 14.5812 4.36668 14.8448 4.36668 15.1085Z" fill="#F9F8F8"/>
<path d="M2.31566 13.8561C2.31566 14.1197 2.11717 14.3175 1.85253 14.3175C1.58789 14.3175 1.3894 14.1197 1.3894 13.8561C1.3894 13.5924 1.58789 13.3946 1.85253 13.3946C2.11717 13.3946 2.31566 13.5924 2.31566 13.8561Z" fill="#F9F8F8"/>
<path d="M3.6389 13.8561C3.6389 14.1197 3.44042 14.3175 3.17577 14.3175C2.91113 14.3175 2.71265 14.1197 2.71265 13.8561C2.71265 13.5924 2.91113 13.3946 3.17577 13.3946C3.44042 13.3946 3.6389 13.5924 3.6389 13.8561Z" fill="#F9F8F8"/>
<path d="M2.97728 12.2081H2.05103V13.131H2.97728V12.2081Z" fill="#F9F8F8"/>
<path d="M2.97728 12.6695C2.97728 12.9332 2.77879 13.131 2.51415 13.131C2.24951 13.131 2.05103 12.9332 2.05103 12.6695C2.05103 12.4059 2.24951 12.2081 2.51415 12.2081C2.77879 12.2081 2.97728 12.4059 2.97728 12.6695Z" fill="#F9F8F8"/>
<path d="M0.926252 16.295C0.926252 16.5587 0.727769 16.7564 0.463126 16.7564C0.198483 16.7564 0 16.5587 0 16.295C0 16.0313 0.198483 15.8336 0.463126 15.8336C0.727769 15.8336 0.926252 16.0313 0.926252 16.295Z" fill="#F9F8F8"/>
<path d="M2.31566 16.295C2.31566 16.5587 2.11717 16.7564 1.85253 16.7564C1.58789 16.7564 1.3894 16.5587 1.3894 16.295C1.3894 16.0313 1.58789 15.8336 1.85253 15.8336C2.11717 15.8336 2.31566 16.0313 2.31566 16.295Z" fill="#F9F8F8"/>
<path d="M3.6389 16.295C3.6389 16.5587 3.44042 16.7564 3.17577 16.7564C2.91113 16.7564 2.71265 16.5587 2.71265 16.295C2.71265 16.0313 2.91113 15.8336 3.17577 15.8336C3.44042 15.8336 3.6389 16.0313 3.6389 16.295Z" fill="#F9F8F8"/>
<path d="M5.0283 16.295C5.0283 16.5587 4.82982 16.7564 4.56518 16.7564C4.30053 16.7564 4.10205 16.5587 4.10205 16.295C4.10205 16.0313 4.30053 15.8336 4.56518 15.8336C4.82982 15.8336 5.0283 16.0313 5.0283 16.295Z" fill="#F9F8F8"/>
<path d="M9.46113 70.9412H6.61621V71.5345H9.46113V70.9412Z" fill="#F9F8F8"/>
<path d="M10.0566 68.7H11.1814V73.2483H10.5859V69.2273H10.0566V68.7Z" fill="#F9F8F8"/>
<path d="M11.7766 69.8206V68.7H15.217V71.5345H12.3059V72.721H15.217V73.2484H11.7766V70.9412H14.6215V69.2274H12.3059V69.8206H11.7766Z" fill="#F9F8F8"/>
<path d="M16.3418 72.721H15.7463V73.3143H16.3418V72.721Z" fill="#F9F8F8"/>
<path d="M17.5325 72.721H16.937V73.3143H17.5325V72.721Z" fill="#F9F8F8"/>
<path d="M18.0618 68.7H19.1865V73.2484H18.6572V69.2274H18.0618V68.7Z" fill="#F9F8F8"/>
<path d="M19.782 69.8206V68.7H23.2223V71.5345H20.3774V72.721H23.2223V73.2484H19.782V70.9412H22.6269V69.2274H20.3774V69.8206H19.782Z" fill="#F9F8F8"/>
<path d="M9.46113 70.9412H6.61621V71.5345H9.46113V70.9412Z" fill="#F9F8F8"/>
<path d="M10.0566 68.7H11.1814V73.2483H10.5859V69.2273H10.0566V68.7Z" fill="#F9F8F8"/>
<path d="M11.7766 69.8206V68.7H15.217V71.5345H12.3059V72.721H15.217V73.2484H11.7766V70.9412H14.6215V69.2274H12.3059V69.8206H11.7766Z" fill="#F9F8F8"/>
<path d="M16.3418 72.721H15.7463V73.3143H16.3418V72.721Z" fill="#F9F8F8"/>
<path d="M17.5325 72.721H16.937V73.3143H17.5325V72.721Z" fill="#F9F8F8"/>
<path d="M18.0618 68.7H19.1865V73.2484H18.6572V69.2274H18.0618V68.7Z" fill="#F9F8F8"/>
<path d="M19.782 69.8206V68.7H23.2223V71.5345H20.3774V72.721H23.2223V73.2484H19.782V70.9412H22.6269V69.2274H20.3774V69.8206H19.782Z" fill="#F9F8F8"/>
</g>
<defs>
<clipPath id="clip0">
<rect width="34.4698" height="61.0403" fill="white" transform="translate(0 12.2081)"/>
</clipPath>
</defs>
</svg>
