<?xml version="1.0" encoding="UTF-8" standalone="no"?>
<svg
   xmlns:dc="http://purl.org/dc/elements/1.1/"
   xmlns:cc="http://creativecommons.org/ns#"
   xmlns:rdf="http://www.w3.org/1999/02/22-rdf-syntax-ns#"
   xmlns:svg="http://www.w3.org/2000/svg"
   xmlns="http://www.w3.org/2000/svg"
   xmlns:sodipodi="http://sodipodi.sourceforge.net/DTD/sodipodi-0.dtd"
   xmlns:inkscape="http://www.inkscape.org/namespaces/inkscape"
   width="223"
   height="48"
   viewBox="0 0 223 48"
   fill="none"
   version="1.1"
   id="svg29"
   sodipodi:docname="logo raposa.svg"
   inkscape:version="1.0.1 (3bc2e813f5, 2020-09-07)">
  <metadata
     id="metadata33">
    <rdf:RDF>
      <cc:Work
         rdf:about="">
        <dc:format>image/svg+xml</dc:format>
        <dc:type
           rdf:resource="http://purl.org/dc/dcmitype/StillImage" />
      </cc:Work>
    </rdf:RDF>
  </metadata>
  <sodipodi:namedview
     pagecolor="#ffffff"
     bordercolor="#666666"
     borderopacity="1"
     objecttolerance="10"
     gridtolerance="10"
     guidetolerance="10"
     inkscape:pageopacity="0"
     inkscape:pageshadow="2"
     inkscape:window-width="2560"
     inkscape:window-height="1346"
     id="namedview31"
     showgrid="false"
     inkscape:zoom="9.7029002"
     inkscape:cx="43.514845"
     inkscape:cy="44.57442"
     inkscape:window-x="-11"
     inkscape:window-y="178"
     inkscape:window-maximized="1"
     inkscape:current-layer="g22" />
  <g
     clip-path="url(#clip0)"
     id="g22">
    <path
       d="M78.5003 39.2L72.4003 30.4C72.1003 30.4 71.8003 30.4 71.2003 30.4H64.4003V39.2H58.8003V9.10001H71.2003C73.8003 9.10001 76.1003 9.50001 78.0003 10.4C79.9003 11.3 81.4003 12.5 82.4003 14.1C83.4003 15.7 83.9003 17.6 83.9003 19.8C83.9003 22.1 83.3003 24 82.2003 25.6C81.1003 27.2 79.5003 28.4 77.5003 29.2L84.4003 39.1H78.5003V39.2ZM76.5003 15.4C75.2003 14.4 73.4003 13.9 71.0003 13.9H64.5003V25.9H71.0003C73.4003 25.9 75.3003 25.4 76.5003 24.3C77.8003 23.3 78.4003 21.8 78.4003 19.9C78.4003 17.9 77.8003 16.4 76.5003 15.4Z"
       fill="#1D1C1D"
       id="path2" />
    <path
       d="M108 18.4C109.8 20 110.7 22.5 110.7 25.7V39.1H105.6V36.3C104.9 37.3 104 38.1 102.8 38.6C101.6 39.1 100.1 39.4 98.4003 39.4C96.7003 39.4 95.2003 39.1 93.9003 38.5C92.6003 37.9 91.6003 37.1 90.9003 36.1C90.2003 35.1 89.8003 33.9 89.8003 32.6C89.8003 30.5 90.6003 28.9 92.1003 27.6C93.6003 26.4 96.0003 25.7 99.3003 25.7H105.2V25.4C105.2 23.8 104.7 22.6 103.8 21.7C102.8 20.8 101.4 20.4 99.5003 20.4C98.2003 20.4 96.9003 20.6 95.7003 21C94.5003 21.4 93.4003 22 92.5003 22.7L90.4003 18.8C91.6003 17.9 93.0003 17.2 94.7003 16.7C96.4003 16.2 98.2003 16 100.1 16C103.6 16 106.2 16.8 108 18.4ZM103.1 34.7C104.1 34.1 104.9 33.2 105.3 32.1V29.4H99.8003C96.7003 29.4 95.2003 30.4 95.2003 32.4C95.2003 33.4 95.6003 34.1 96.4003 34.7C97.2003 35.3 98.2003 35.6 99.6003 35.6C100.8 35.6 102 35.3 103.1 34.7Z"
       fill="#1D1C1D"
       id="path4" />
    <path
       d="M137.9 17.5C139.7 18.5 141 19.8 142 21.6C143 23.4 143.5 25.4 143.5 27.7C143.5 30 143 32.1 142 33.9C141 35.7 139.6 37.1 137.9 38C136.1 39 134.1 39.5 131.9 39.5C128.8 39.5 126.4 38.5 124.6 36.4V47.5H119.2V16.3H124.3V19.3C125.2 18.2 126.3 17.4 127.6 16.9C128.9 16.4 130.3 16.1 131.9 16.1C134.2 16 136.2 16.5 137.9 17.5ZM136.2 32.9C137.5 31.6 138.1 29.9 138.1 27.7C138.1 25.5 137.5 23.8 136.2 22.5C134.9 21.2 133.3 20.5 131.3 20.5C130 20.5 128.9 20.8 127.8 21.4C126.8 22 126 22.8 125.4 23.9C124.8 25 124.5 26.2 124.5 27.7C124.5 29.1 124.8 30.4 125.4 31.5C126 32.6 126.8 33.4 127.8 34C128.8 34.6 130 34.9 131.3 34.9C133.3 34.9 134.9 34.2 136.2 32.9Z"
       fill="#1D1C1D"
       id="path6" />
    <path
       d="M154.4 38C152.5 37 151.1 35.6 150 33.8C149 32 148.4 30 148.4 27.7C148.4 25.4 148.9 23.4 150 21.6C151 19.8 152.5 18.4 154.4 17.4C156.3 16.4 158.4 15.9 160.7 15.9C163 15.9 165.2 16.4 167 17.4C168.9 18.4 170.3 19.8 171.4 21.6C172.4 23.4 173 25.4 173 27.7C173 30 172.5 32 171.4 33.8C170.3 35.6 168.9 37 167 38C165.1 39 163 39.5 160.7 39.5C158.4 39.5 156.3 39 154.4 38ZM165.6 32.9C166.9 31.6 167.5 29.9 167.5 27.7C167.5 25.5 166.9 23.8 165.6 22.5C164.3 21.2 162.7 20.5 160.7 20.5C158.7 20.5 157.1 21.2 155.8 22.5C154.5 23.8 153.9 25.5 153.9 27.7C153.9 29.9 154.5 31.6 155.8 32.9C157.1 34.2 158.7 34.9 160.7 34.9C162.7 34.9 164.3 34.2 165.6 32.9Z"
       fill="#1D1C1D"
       id="path8" />
    <path
       d="M181.4 38.8C179.6 38.3 178.2 37.7 177.1 37L179.2 32.9C180.2 33.6 181.5 34.1 182.9 34.6C184.3 35.1 185.8 35.2 187.2 35.2C190.4 35.2 192 34.4 192 32.7C192 31.9 191.6 31.3 190.8 31C190 30.7 188.7 30.4 186.9 30.1C185 29.8 183.5 29.5 182.3 29.1C181.1 28.7 180.1 28.1 179.2 27.1C178.3 26.2 177.9 24.9 177.9 23.2C177.9 21 178.8 19.3 180.6 18C182.4 16.7 184.9 16 188 16C189.6 16 191.1 16.2 192.7 16.5C194.3 16.9 195.6 17.3 196.6 17.9L194.5 22C192.6 20.9 190.4 20.3 187.9 20.3C186.3 20.3 185.1 20.5 184.3 21C183.5 21.5 183.1 22.1 183.1 22.9C183.1 23.8 183.5 24.4 184.4 24.7C185.3 25.1 186.6 25.4 188.5 25.7C190.3 26 191.8 26.3 193 26.7C194.2 27.1 195.2 27.7 196 28.6C196.8 29.5 197.3 30.7 197.3 32.4C197.3 34.5 196.4 36.3 194.5 37.6C192.6 38.9 190.1 39.5 186.9 39.5C185 39.5 183.2 39.3 181.4 38.8Z"
       fill="#1D1C1D"
       id="path10" />
    <path
       d="M220 18.4C221.8 20 222.7 22.5 222.7 25.7V39.1H217.6V36.3C216.9 37.3 216 38.1 214.8 38.6C213.6 39.1 212.1 39.4 210.4 39.4C208.7 39.4 207.2 39.1 205.9 38.5C204.6 37.9 203.6 37.1 202.9 36.1C202.2 35.1 201.8 33.9 201.8 32.6C201.8 30.5 202.6 28.9 204.1 27.6C205.6 26.3 208 25.7 211.3 25.7H217.2V25.4C217.2 23.8 216.7 22.6 215.8 21.7C214.8 20.8 213.4 20.4 211.5 20.4C210.2 20.4 208.9 20.6 207.7 21C206.5 21.4 205.4 22 204.5 22.7L202.4 18.8C203.6 17.9 205 17.2 206.7 16.7C208.4 16.2 210.2 16 212.1 16C215.6 16 218.2 16.8 220 18.4ZM215.1 34.7C216.1 34.1 216.9 33.2 217.3 32.1V29.4H211.8C208.7 29.4 207.2 30.4 207.2 32.4C207.2 33.4 207.6 34.1 208.4 34.7C209.2 35.3 210.2 35.6 211.6 35.6C212.8 35.6 214 35.3 215.1 34.7Z"
       fill="#1D1C1D"
       id="path12" />
    <g
       id="g869"
       transform="translate(0.41224784,0.41224787)">
      <g
         id="g862"
         transform="translate(7.1112758,1.3398056)">
        <path
           d="m 40.0001,0.2 -11.9,7 h -14.4 L 1.80009,0.2 c -0.4,-0.3 -0.899997,-0.2 -1.299997,0 -0.4,0.3 -0.6000002,0.7 -0.5000002254,1.2 L 3.10009,22.4 l -1,4.7 c -0.1,0.4 0,0.8 0.3,1.1 L 20.1001,45 c 0.2,0.2 0.5,0.3 0.8,0.3 0.3,0 0.6,-0.1 0.8,-0.3 l 17.6,-16.8 0.1,-0.1 0.1,-0.1 c 0,-0.1 0.1,-0.2 0.1,-0.2 v -0.1 c 0,-0.1 0,-0.1 0,-0.2 v -0.1 c 0,-0.1 0,-0.1 0,-0.2 l -1,-4.7 3.1,-21 c 0.1,-0.4 -0.1,-0.9 -0.5,-1.2 -0.1,-0.2 -0.3,-0.3 -0.6,-0.3 -0.2,0 -0.4,0.1 -0.6,0.2 z"
           fill="#ff5629"
           id="path14" />
        <path
           d="m 28.2002,7.19999 11.9,-7.000002 c 0.4,-0.2000002041 0.9,-0.2000002041 1.3,0 0.4,0.3 0.6,0.7 0.5,1.200002 L 38.8002,22.4 13.7002,7.19999 Z"
           fill="#4044ac"
           id="path16" />
        <path
           d="m 13.7002,7.20001 25.1,15.19999 0.5,-4 z"
           fill="#02ba74"
           id="path18" />
        <path
           d="m 13.7002,7.20001 25.3,16.49999 -0.2,-1.3 z"
           fill="#f375d1"
           id="path20" />
      </g>
    </g>
  </g>
  <defs
     id="defs27">
    <clipPath
       id="clip0">
      <rect
         width="222.7"
         height="47.5"
         fill="white"
         id="rect24" />
    </clipPath>
  </defs>
</svg>
